<svg width="180" height="180" viewBox="0 0 180 180" fill="none" xmlns="http://www.w3.org/2000/svg">
<circle cx="90" cy="90" r="90" fill="white"/>
<path d="M29.0752 128.889H32.6641V139.133C32.6641 140.083 32.4419 140.93 31.9976 141.676C31.5601 142.421 30.9448 142.998 30.1519 143.409C29.3657 143.819 28.4873 144.024 27.5166 144.024C25.8896 144.024 24.625 143.614 23.7227 142.793C22.8203 141.973 22.3691 140.811 22.3691 139.307H25.9785C25.9785 139.991 26.0947 140.486 26.3271 140.794C26.5664 141.101 26.9629 141.255 27.5166 141.255C28.0156 141.255 28.3984 141.071 28.665 140.701C28.9385 140.326 29.0752 139.803 29.0752 139.133V128.889ZM42.0161 138.261L40.5396 139.881V143.819H36.9404V128.889H40.5396V135.472L41.7905 133.575L45.0103 128.889H49.4604L44.4155 135.492L49.4604 143.819H45.1948L42.0161 138.261ZM57.1001 128.889L60.4326 139.276L63.7549 128.889H68.4922V143.819H64.8828V140.332L65.2314 133.196L61.6221 143.819H59.2432L55.6235 133.185L55.9722 140.332V143.819H52.373V128.889H57.1001ZM85.5659 138.548H83.6177V143.819H80.0186V128.889H85.894C87.6646 128.889 89.0488 129.282 90.0469 130.068C91.0449 130.854 91.5439 131.965 91.5439 133.401C91.5439 134.44 91.332 135.301 90.9082 135.985C90.4912 136.668 89.835 137.222 88.9395 137.646L92.0566 143.665V143.819H88.2012L85.5659 138.548ZM83.6177 135.769H85.894C86.5776 135.769 87.0903 135.592 87.4321 135.236C87.7808 134.874 87.9551 134.371 87.9551 133.729C87.9551 133.086 87.7808 132.584 87.4321 132.221C87.0835 131.852 86.5708 131.668 85.894 131.668H83.6177V135.769ZM104.977 137.492H99.3169V141.05H106.002V143.819H95.7178V128.889H106.023V131.668H99.3169V134.816H104.977V137.492ZM117.169 139.85C117.169 139.324 116.981 138.914 116.605 138.62C116.236 138.326 115.583 138.022 114.647 137.707C113.71 137.393 112.945 137.089 112.35 136.795C110.416 135.845 109.448 134.539 109.448 132.878C109.448 132.051 109.688 131.323 110.166 130.694C110.651 130.058 111.335 129.566 112.217 129.217C113.099 128.862 114.09 128.684 115.19 128.684C116.264 128.684 117.224 128.875 118.072 129.258C118.926 129.641 119.589 130.188 120.061 130.899C120.533 131.603 120.769 132.409 120.769 133.319H117.18C117.18 132.71 116.992 132.239 116.616 131.904C116.247 131.569 115.744 131.401 115.108 131.401C114.466 131.401 113.957 131.545 113.581 131.832C113.211 132.112 113.027 132.471 113.027 132.909C113.027 133.291 113.232 133.64 113.642 133.954C114.052 134.262 114.773 134.583 115.806 134.918C116.838 135.246 117.686 135.602 118.349 135.985C119.962 136.914 120.769 138.196 120.769 139.83C120.769 141.136 120.276 142.161 119.292 142.906C118.308 143.651 116.958 144.024 115.242 144.024C114.032 144.024 112.935 143.808 111.95 143.378C110.973 142.94 110.234 142.346 109.735 141.594C109.243 140.835 108.997 139.963 108.997 138.979H112.606C112.606 139.779 112.812 140.37 113.222 140.753C113.639 141.129 114.312 141.317 115.242 141.317C115.836 141.317 116.305 141.19 116.646 140.937C116.995 140.678 117.169 140.315 117.169 139.85ZM136.334 131.668H131.854V143.819H128.254V131.668H123.855V128.889H136.334V131.668ZM152.218 136.661C152.218 138.117 151.948 139.406 151.408 140.527C150.868 141.648 150.099 142.513 149.101 143.121C148.11 143.723 146.979 144.024 145.707 144.024C144.436 144.024 143.308 143.733 142.323 143.152C141.339 142.564 140.57 141.727 140.016 140.64C139.469 139.553 139.182 138.305 139.155 136.897V136.056C139.155 134.594 139.421 133.305 139.955 132.191C140.495 131.07 141.264 130.205 142.262 129.596C143.267 128.988 144.408 128.684 145.687 128.684C146.951 128.684 148.079 128.985 149.07 129.586C150.062 130.188 150.831 131.046 151.377 132.16C151.931 133.267 152.211 134.539 152.218 135.974V136.661ZM148.558 136.036C148.558 134.553 148.308 133.428 147.809 132.662C147.317 131.89 146.609 131.504 145.687 131.504C143.882 131.504 142.928 132.857 142.826 135.564L142.815 136.661C142.815 138.124 143.058 139.249 143.543 140.035C144.029 140.821 144.75 141.214 145.707 141.214C146.616 141.214 147.317 140.828 147.809 140.055C148.301 139.283 148.551 138.172 148.558 136.723V136.036Z" fill="#363948"/>
<path d="M128.567 73.506C116.802 72.6562 106.047 71.8862 95.2952 71.1009C84.1627 70.2879 73.0354 69.4156 61.8998 68.6589C56.872 68.3174 55.0789 66.0687 56.2911 61.2502C60.3046 45.8612 73.4152 34.4622 89.3548 32.5031C90.3108 32.3947 90.966 32.2904 91.2543 31.1962C91.5096 30.2268 92.4676 29.9548 93.4081 30.0059C95.6238 30.1266 97.8355 30.3127 100.05 30.4538C100.942 30.5121 101.901 30.8771 101.999 31.6748C102.19 33.2209 103.305 33.2813 104.364 33.5563C120.402 37.8359 131.977 51.647 133.26 68.0341C133.501 71.4066 131.186 73.6134 128.567 73.506Z" fill="#F15A2B"/>
<path d="M94.3114 106.855C90.3505 106.596 86.615 106.386 82.8878 106.087C81.8161 106.001 81.3258 106.139 81.2327 107.381C81.0978 109.113 80.1052 110.666 78.5834 111.526C77.6183 112.311 76.2636 112.419 75.1841 111.798C74.003 111.062 73.4718 109.628 73.8921 108.309C74.0918 107.468 74.4383 106.667 74.7331 105.796C73.664 105.42 72.532 105.253 71.399 105.302C70.533 105.342 69.6888 105.025 69.0666 104.426C68.4444 103.827 68.0995 102.999 68.1136 102.14C68.1567 101.31 68.5417 100.534 69.1784 99.9935C69.8151 99.4533 70.6475 99.1963 71.4808 99.2827C78.1893 99.6716 84.8916 100.152 91.597 100.583C93.3701 100.697 95.1452 100.826 96.9193 100.823C98.4484 100.811 99.6947 99.6024 99.7424 98.0862C99.7425 96.5752 98.6011 95.3039 97.0879 95.1299C90.8191 94.7061 84.5461 94.3295 78.2741 93.9334C74.2904 93.6809 70.3035 93.4582 66.3229 93.1555C63.9188 92.9718 62.7892 91.762 62.9423 89.7394C63.0902 87.7897 64.2871 86.9052 66.7222 87.0335C71.9204 87.3074 77.1155 87.6389 82.3137 87.8934C83.1033 88.0241 83.9117 87.8154 84.5369 87.3194C85.162 86.8234 85.5449 86.087 85.5898 85.2941C85.6933 83.5343 84.5864 82.3295 82.5537 82.189C73.7535 81.5733 64.9502 81.0161 56.15 80.4096C53.5555 80.231 52.2076 78.8919 52.308 76.7216C52.4083 74.5512 53.8524 73.3619 56.5493 73.521C66.1781 74.0915 75.8028 74.7349 85.4285 75.3445C96.3097 76.034 107.192 76.7219 118.074 77.4081C122.122 77.6667 126.168 77.9581 130.214 78.2454C131.37 78.3275 132.65 78.4301 133.126 79.641C133.61 80.8775 132.866 81.8986 132.056 82.8621C128.163 87.5055 124.114 92.0124 120.097 96.548C115.59 101.635 109.743 104.029 103.398 105.655C103.036 105.771 102.662 105.845 102.283 105.874C100.835 105.895 100.332 106.483 100.552 107.988C100.821 109.826 99.7993 111.255 98.4669 112.423C97.399 113.491 95.734 113.699 94.4325 112.927C92.8973 112.094 93.0514 110.637 93.3008 109.272C93.5541 108.435 93.8927 107.625 94.3114 106.855Z" fill="#5200C6"/>
<path d="M45.0531 85.6665C48.0548 85.8614 51.0586 86.026 54.0571 86.2624C54.9199 86.2612 55.7436 86.639 56.3283 87.3042C56.913 87.9694 57.2051 88.8611 57.1336 89.7626C57.1816 90.6417 56.8477 91.4964 56.2252 92.0875C55.6027 92.6787 54.7586 92.9427 53.9289 92.8058C50.0759 92.668 46.2249 92.4216 42.3782 92.1427C40.8009 92.1981 39.4167 91.0491 39.1063 89.4266C38.8919 88.551 39.0601 87.6209 39.5652 86.8884C40.0704 86.156 40.8601 85.6971 41.7202 85.6363C42.8237 85.5422 43.941 85.6195 45.052 85.6195L45.0531 85.6665Z" fill="#5200C6"/>
<path d="M57.4301 104.857C55.9882 104.77 54.5453 104.69 53.1045 104.594C51.327 104.589 49.8885 103.23 49.8862 101.555C49.9351 100.779 50.3188 100.057 50.9481 99.555C51.5773 99.0534 52.3971 98.8167 53.2164 98.9002C55.1662 98.9563 57.1048 99.111 59.0475 99.2465C59.8712 99.2354 60.6606 99.557 61.2166 100.13C61.7725 100.703 62.0419 101.473 61.9568 102.245C61.9631 102.987 61.6403 103.698 61.0665 104.206C60.4926 104.714 59.7198 104.973 58.9346 104.92C58.4327 104.93 57.9309 104.92 57.4281 104.92L57.4301 104.857Z" fill="#5200C6"/>
<path d="M41.728 79.4302C40.4768 79.3224 39.2112 79.2923 37.9785 79.0874C37.2182 79.0244 36.5167 78.6763 36.0311 78.1212C35.5455 77.5661 35.3166 76.8504 35.3957 76.1347C35.4017 75.3854 35.7441 74.6736 36.3381 74.1757C36.9321 73.6779 37.722 73.4406 38.5119 73.5228C40.6477 73.582 42.7877 73.685 44.9091 73.9112C46.3736 74.1117 47.4615 75.2932 47.4664 76.6885C47.4713 78.0838 46.3917 79.272 44.9286 79.4816C43.8665 79.5624 42.7997 79.5715 41.7362 79.5088L41.728 79.4302Z" fill="#5200C6"/>
<path d="M29.9373 91.6178C26.701 91.4374 25.4799 90.4183 25.7509 88.1121C25.7619 87.8031 25.8335 87.4993 25.9615 87.218C27.2431 85.0075 29.3479 85.6385 31.2552 85.7856C32.8182 85.8038 34.0924 87.0453 34.1519 88.608C34.3876 90.6421 32.7755 91.7771 29.9373 91.6178Z" fill="#5200C6"/>
<path d="M40.266 97.68C42.4525 97.7239 43.8321 98.8747 43.8463 100.673C43.8625 101.531 43.4848 102.354 42.8088 102.933C42.1328 103.513 41.2233 103.794 40.3108 103.706C38.1014 103.685 36.5031 102.336 36.5993 100.574C36.7032 98.6672 38.0162 97.635 40.266 97.68Z" fill="#5200C6"/>
<path d="M92.5647 56.0656C92.4896 56.0603 92.4153 56.0518 92.3412 56.04C92.1387 56.0077 91.9465 55.9455 91.7609 55.8681L86.5643 59.8184C86.3093 60.012 86.2509 60.3832 86.4341 60.6468L87.3997 62.0383C87.5829 62.3019 87.9379 62.3585 88.1923 62.1648L94.4377 57.4182L93.6196 56.1389L92.5647 56.0656Z" fill="white"/>
<path d="M106.345 50.191C106.15 49.918 105.773 49.8579 105.504 50.0566L101.779 52.8021C101.427 53.0616 100.935 52.983 100.679 52.6265C100.425 52.2704 100.503 51.7714 100.854 51.512L104.56 48.7807C104.84 48.574 104.902 48.1765 104.7 47.8922C104.495 47.6086 104.104 47.5461 103.824 47.7524L100.119 50.4837C99.767 50.7435 99.2752 50.6649 99.0197 50.3081C98.7647 49.952 98.8432 49.4527 99.1948 49.1937L102.918 46.4484C103.189 46.2494 103.249 45.8668 103.053 45.593C102.857 45.3196 102.48 45.2594 102.21 45.4584L98.0203 48.5471C97.0129 49.2903 96.544 50.4843 96.6482 51.6555L98.6844 54.4995C99.75 54.9611 101.015 54.8775 102.021 54.1349L106.211 51.0464C106.481 50.8475 106.541 50.4644 106.345 50.191Z" fill="white"/>
<path d="M90.012 43.3288C89.9147 43.1881 89.7676 43.096 89.6058 43.0701C89.5714 43.0646 89.5363 43.0622 89.5016 43.0627C89.2992 43.0662 89.1095 43.1716 88.9931 43.3462C87.6582 45.3437 87.6689 47.9906 89.0197 49.9425L91.4364 53.434C91.6747 53.7789 92.0346 54.0062 92.4348 54.0701C92.4776 54.0769 92.5208 54.0819 92.5642 54.085L94.2673 54.203L100.29 63.6478C100.384 63.7946 100.531 63.8947 100.699 63.925C100.702 63.9255 100.706 63.9261 100.709 63.9267C100.873 63.9529 101.041 63.91 101.177 63.8075L102.638 62.6936C102.772 62.591 102.863 62.437 102.89 62.2656C102.917 62.0943 102.878 61.9195 102.782 61.7799L90.012 43.3288Z" fill="white"/>
</svg>
